<?xml version="1.0" encoding="UTF-8" standalone="no"?>
<!DOCTYPE svg PUBLIC "-//W3C//DTD SVG 1.1//EN"
 "http://www.w3.org/Graphics/SVG/1.1/DTD/svg11.dtd">
<!-- Generated by graphviz version 2.43.0 (0)
 -->
<!-- Title: enterprise_placement Pages: 1 -->
<svg width="1111pt" height="648pt"
 viewBox="0.00 0.00 1110.86 648.00" xmlns="http://www.w3.org/2000/svg" xmlns:xlink="http://www.w3.org/1999/xlink">
<g id="graph0" class="graph" transform="scale(0.92 0.92) rotate(0) translate(28.8 676.8)">
<title>enterprise_placement</title>
<polygon fill="white" stroke="transparent" points="-28.8,28.8 -28.8,-676.8 1180.8,-676.8 1180.8,28.8 -28.8,28.8"/>
<!-- AXME -->
<g id="node1" class="node">
<title>AXME</title>
<polygon fill="#1e40af" stroke="black" points="139,-342 41,-342 41,-306 139,-306 139,-342"/>
<text text-anchor="middle" x="90" y="-321.2" font-family="Helvetica,sans-Serif" font-size="11.00" fill="white">AXME Platform</text>
</g>
<!-- CLOUD -->
<g id="node2" class="node">
<title>CLOUD</title>
<polygon fill="#dbeafe" stroke="black" points="430,-585 338,-585 338,-549 430,-549 430,-585"/>
<text text-anchor="middle" x="384" y="-570.2" font-family="Helvetica,sans-Serif" font-size="11.00">Cloud SaaS</text>
<text text-anchor="middle" x="384" y="-558.2" font-family="Helvetica,sans-Serif" font-size="11.00">(shared infra)</text>
</g>
<!-- AXME&#45;&gt;CLOUD -->
<g id="edge1" class="edge">
<title>AXME&#45;&gt;CLOUD</title>
<path fill="none" stroke="black" d="M112.95,-342.26C164.76,-385.38 294.7,-493.52 353.4,-542.37"/>
<polygon fill="black" stroke="black" points="351.27,-545.15 361.2,-548.86 355.75,-539.77 351.27,-545.15"/>
</g>
<!-- PRIV -->
<g id="node3" class="node">
<title>PRIV</title>
<polygon fill="#dbeafe" stroke="black" points="458.5,-342 309.5,-342 309.5,-306 458.5,-306 458.5,-342"/>
<text text-anchor="middle" x="384" y="-327.2" font-family="Helvetica,sans-Serif" font-size="11.00">Private Cloud</text>
<text text-anchor="middle" x="384" y="-315.2" font-family="Helvetica,sans-Serif" font-size="11.00">(customer VPC / region)</text>
</g>
<!-- AXME&#45;&gt;PRIV -->
<g id="edge2" class="edge">
<title>AXME&#45;&gt;PRIV</title>
<path fill="none" stroke="black" d="M139.22,-324C182.57,-324 247.22,-324 299.05,-324"/>
<polygon fill="black" stroke="black" points="299.24,-327.5 309.24,-324 299.24,-320.5 299.24,-327.5"/>
</g>
<!-- ON -->
<g id="node4" class="node">
<title>ON</title>
<polygon fill="#dbeafe" stroke="black" points="456.5,-99 311.5,-99 311.5,-63 456.5,-63 456.5,-99"/>
<text text-anchor="middle" x="384" y="-84.2" font-family="Helvetica,sans-Serif" font-size="11.00">On&#45;Premises</text>
<text text-anchor="middle" x="384" y="-72.2" font-family="Helvetica,sans-Serif" font-size="11.00">(customer data center)</text>
</g>
<!-- AXME&#45;&gt;ON -->
<g id="edge3" class="edge">
<title>AXME&#45;&gt;ON</title>
<path fill="none" stroke="black" d="M112.95,-305.74C164.76,-262.62 294.7,-154.48 353.4,-105.63"/>
<polygon fill="black" stroke="black" points="355.75,-108.23 361.2,-99.14 351.27,-102.85 355.75,-108.23"/>
</g>
<!-- SHARE -->
<g id="node5" class="node">
<title>SHARE</title>
<polygon fill="#dbeafe" stroke="black" points="788,-585 658,-585 658,-549 788,-549 788,-585"/>
<text text-anchor="middle" x="723" y="-564.2" font-family="Helvetica,sans-Serif" font-size="11.00">shared control plane</text>
</g>
<!-- CLOUD&#45;&gt;SHARE -->
<g id="edge4" class="edge">
<title>CLOUD&#45;&gt;SHARE</title>
<path fill="none" stroke="black" d="M430.1,-567C485.8,-567 581.32,-567 647.87,-567"/>
<polygon fill="black" stroke="black" points="647.88,-570.5 657.88,-567 647.88,-563.5 647.88,-570.5"/>
</g>
<!-- DED -->
<g id="node6" class="node">
<title>DED</title>
<polygon fill="#dbeafe" stroke="black" points="796,-342 650,-342 650,-306 796,-306 796,-342"/>
<text text-anchor="middle" x="723" y="-321.2" font-family="Helvetica,sans-Serif" font-size="11.00">dedicated control plane</text>
</g>
<!-- PRIV&#45;&gt;DED -->
<g id="edge5" class="edge">
<title>PRIV&#45;&gt;DED</title>
<path fill="none" stroke="black" d="M458.54,-324C511.96,-324 584.29,-324 639.64,-324"/>
<polygon fill="black" stroke="black" points="639.78,-327.5 649.78,-324 639.78,-320.5 639.78,-327.5"/>
</g>
<!-- LOCAL -->
<g id="node7" class="node">
<title>LOCAL</title>
<polygon fill="#dbeafe" stroke="black" points="787.5,-99 658.5,-99 658.5,-63 787.5,-63 787.5,-99"/>
<text text-anchor="middle" x="723" y="-84.2" font-family="Helvetica,sans-Serif" font-size="11.00">fully isolated</text>
<text text-anchor="middle" x="723" y="-72.2" font-family="Helvetica,sans-Serif" font-size="11.00">(no egress required)</text>
</g>
<!-- ON&#45;&gt;LOCAL -->
<g id="edge6" class="edge">
<title>ON&#45;&gt;LOCAL</title>
<path fill="none" stroke="black" d="M456.88,-81C513.32,-81 591.6,-81 648.47,-81"/>
<polygon fill="black" stroke="black" points="648.47,-84.5 658.47,-81 648.47,-77.5 648.47,-84.5"/>
</g>
<!-- UNIF -->
<g id="node8" class="node">
<title>UNIF</title>
<polygon fill="#dcfce7" stroke="black" points="1100,-342 976,-342 976,-306 1100,-306 1100,-342"/>
<text text-anchor="middle" x="1038" y="-327.2" font-family="Helvetica,sans-Serif" font-size="11.00">unified API surface</text>
<text text-anchor="middle" x="1038" y="-315.2" font-family="Helvetica,sans-Serif" font-size="11.00">(same SDK + spec)</text>
</g>
<!-- SHARE&#45;&gt;UNIF -->
<g id="edge7" class="edge">
<title>SHARE&#45;&gt;UNIF</title>
<path fill="none" stroke="black" d="M747.27,-548.93C802.73,-505.88 942.73,-397.19 1005.59,-348.39"/>
<polygon fill="black" stroke="black" points="1007.82,-351.08 1013.58,-342.18 1003.53,-345.55 1007.82,-351.08"/>
</g>
<!-- DED&#45;&gt;UNIF -->
<g id="edge8" class="edge">
<title>DED&#45;&gt;UNIF</title>
<path fill="none" stroke="black" d="M796.2,-324C847.13,-324 915.02,-324 965.74,-324"/>
<polygon fill="black" stroke="black" points="965.96,-327.5 975.96,-324 965.96,-320.5 965.96,-327.5"/>
</g>
<!-- LOCAL&#45;&gt;UNIF -->
<g id="edge9" class="edge">
<title>LOCAL&#45;&gt;UNIF</title>
<path fill="none" stroke="black" d="M747.27,-99.07C802.73,-142.12 942.73,-250.81 1005.59,-299.61"/>
<polygon fill="black" stroke="black" points="1003.53,-302.45 1013.58,-305.82 1007.82,-296.92 1003.53,-302.45"/>
</g>
</g>
</svg>
