<?xml version="1.0" encoding="UTF-8" standalone="no"?>
<!DOCTYPE svg PUBLIC "-//W3C//DTD SVG 1.1//EN"
 "http://www.w3.org/Graphics/SVG/1.1/DTD/svg11.dtd">
<!-- Generated by graphviz version 2.43.0 (0)
 -->
<!-- Title: incident Pages: 1 -->
<svg width="1112pt" height="648pt"
 viewBox="0.00 0.00 1112.28 648.00" xmlns="http://www.w3.org/2000/svg" xmlns:xlink="http://www.w3.org/1999/xlink">
<g id="graph0" class="graph" transform="scale(0.9 0.9) rotate(0) translate(28.8 691.42)">
<title>incident</title>
<polygon fill="white" stroke="transparent" points="-28.8,28.8 -28.8,-691.42 1207.46,-691.42 1207.46,28.8 -28.8,28.8"/>
<!-- ALERT -->
<g id="node1" class="node">
<title>ALERT</title>
<polygon fill="#1e40af" stroke="black" points="89.66,-349.31 -0.34,-349.31 -0.34,-313.31 89.66,-313.31 89.66,-349.31"/>
<text text-anchor="middle" x="44.66" y="-328.51" font-family="Helvetica,sans-Serif" font-size="11.00" fill="white">Incident Alert</text>
</g>
<!-- TRIAGE -->
<g id="node2" class="node">
<title>TRIAGE</title>
<polygon fill="#dbeafe" stroke="black" points="218.66,-349.31 126.66,-349.31 126.66,-313.31 218.66,-313.31 218.66,-349.31"/>
<text text-anchor="middle" x="172.66" y="-328.51" font-family="Helvetica,sans-Serif" font-size="11.00">on&#45;call: triage</text>
</g>
<!-- ALERT&#45;&gt;TRIAGE -->
<g id="edge1" class="edge">
<title>ALERT&#45;&gt;TRIAGE</title>
<path fill="none" stroke="black" d="M89.73,-331.31C98.29,-331.31 107.38,-331.31 116.26,-331.31"/>
<polygon fill="black" stroke="black" points="116.55,-334.81 126.55,-331.31 116.55,-327.81 116.55,-334.81"/>
</g>
<!-- SEV -->
<g id="node3" class="node">
<title>SEV</title>
<polygon fill="#fef3c7" stroke="black" points="313.66,-349.31 256,-331.31 313.66,-313.31 371.31,-331.31 313.66,-349.31"/>
<text text-anchor="middle" x="313.66" y="-328.51" font-family="Helvetica,sans-Serif" font-size="11.00">severity?</text>
</g>
<!-- TRIAGE&#45;&gt;SEV -->
<g id="edge2" class="edge">
<title>TRIAGE&#45;&gt;SEV</title>
<path fill="none" stroke="black" d="M218.79,-331.31C227.31,-331.31 236.39,-331.31 245.43,-331.31"/>
<polygon fill="black" stroke="black" points="245.57,-334.81 255.57,-331.31 245.57,-327.81 245.57,-334.81"/>
</g>
<!-- P0F -->
<g id="node4" class="node">
<title>P0F</title>
<polygon fill="#fee2e2" stroke="black" points="567.66,-597.31 451.66,-597.31 451.66,-561.31 567.66,-561.31 567.66,-597.31"/>
<text text-anchor="middle" x="509.66" y="-582.51" font-family="Helvetica,sans-Serif" font-size="11.00">SEV1: exec bridge</text>
<text text-anchor="middle" x="509.66" y="-570.51" font-family="Helvetica,sans-Serif" font-size="11.00">+ war room</text>
</g>
<!-- SEV&#45;&gt;P0F -->
<g id="edge3" class="edge">
<title>SEV&#45;&gt;P0F</title>
<path fill="none" stroke="black" d="M325.93,-345.72C357.56,-386.16 447.54,-501.18 488.23,-553.2"/>
<polygon fill="black" stroke="black" points="485.63,-555.56 494.55,-561.28 491.14,-551.25 485.63,-555.56"/>
<text text-anchor="middle" x="401.66" y="-458.31" font-family="Helvetica,sans-Serif" font-size="10.00">SEV1</text>
</g>
<!-- P1F -->
<g id="node5" class="node">
<title>P1F</title>
<polygon fill="#fef3c7" stroke="black" points="587.16,-349.31 432.16,-349.31 432.16,-313.31 587.16,-313.31 587.16,-349.31"/>
<text text-anchor="middle" x="509.66" y="-328.51" font-family="Helvetica,sans-Serif" font-size="11.00">SEV2: eng lead + comms</text>
</g>
<!-- SEV&#45;&gt;P1F -->
<g id="edge4" class="edge">
<title>SEV&#45;&gt;P1F</title>
<path fill="none" stroke="black" d="M371.55,-331.31C387.2,-331.31 404.54,-331.31 421.47,-331.31"/>
<polygon fill="black" stroke="black" points="421.94,-334.81 431.94,-331.31 421.94,-327.81 421.94,-334.81"/>
<text text-anchor="middle" x="401.66" y="-334.31" font-family="Helvetica,sans-Serif" font-size="10.00">SEV2</text>
</g>
<!-- P2F -->
<g id="node6" class="node">
<title>P2F</title>
<polygon fill="#dbeafe" stroke="black" points="560.16,-101.31 459.16,-101.31 459.16,-65.31 560.16,-65.31 560.16,-101.31"/>
<text text-anchor="middle" x="509.66" y="-80.51" font-family="Helvetica,sans-Serif" font-size="11.00">SEV3: async fix</text>
</g>
<!-- SEV&#45;&gt;P2F -->
<g id="edge5" class="edge">
<title>SEV&#45;&gt;P2F</title>
<path fill="none" stroke="black" d="M325.93,-316.91C357.56,-276.46 447.54,-161.44 488.23,-109.42"/>
<polygon fill="black" stroke="black" points="491.14,-111.38 494.55,-101.35 485.63,-107.07 491.14,-111.38"/>
<text text-anchor="middle" x="401.66" y="-233.31" font-family="Helvetica,sans-Serif" font-size="10.00">SEV3</text>
</g>
<!-- MIT -->
<g id="node7" class="node">
<title>MIT</title>
<polygon fill="#dbeafe" stroke="black" points="740.66,-436.31 624.66,-436.31 624.66,-400.31 740.66,-400.31 740.66,-436.31"/>
<text text-anchor="middle" x="682.66" y="-415.51" font-family="Helvetica,sans-Serif" font-size="11.00">mitigate / rollback</text>
</g>
<!-- P0F&#45;&gt;MIT -->
<g id="edge6" class="edge">
<title>P0F&#45;&gt;MIT</title>
<path fill="none" stroke="black" d="M529.94,-561.16C560.55,-532.33 620.35,-476.03 655.03,-443.38"/>
<polygon fill="black" stroke="black" points="657.56,-445.81 662.44,-436.4 652.76,-440.71 657.56,-445.81"/>
</g>
<!-- P1F&#45;&gt;MIT -->
<g id="edge7" class="edge">
<title>P1F&#45;&gt;MIT</title>
<path fill="none" stroke="black" d="M546.09,-349.34C572.57,-362.81 608.95,-381.32 637.35,-395.77"/>
<polygon fill="black" stroke="black" points="635.77,-398.89 646.27,-400.31 638.95,-392.66 635.77,-398.89"/>
</g>
<!-- TKT -->
<g id="node11" class="node">
<title>TKT</title>
<polygon fill="#dbeafe" stroke="black" points="725.66,-101.31 639.66,-101.31 639.66,-65.31 725.66,-65.31 725.66,-101.31"/>
<text text-anchor="middle" x="682.66" y="-80.51" font-family="Helvetica,sans-Serif" font-size="11.00">create ticket</text>
</g>
<!-- P2F&#45;&gt;TKT -->
<g id="edge11" class="edge">
<title>P2F&#45;&gt;TKT</title>
<path fill="none" stroke="black" d="M560.58,-83.31C582.19,-83.31 607.5,-83.31 629.38,-83.31"/>
<polygon fill="black" stroke="black" points="629.48,-86.81 639.48,-83.31 629.48,-79.81 629.48,-86.81"/>
</g>
<!-- RES -->
<g id="node8" class="node">
<title>RES</title>
<polygon fill="#dcfce7" stroke="black" points="882.16,-436.31 787.16,-436.31 787.16,-400.31 882.16,-400.31 882.16,-436.31"/>
<text text-anchor="middle" x="834.66" y="-415.51" font-family="Helvetica,sans-Serif" font-size="11.00">mark resolved</text>
</g>
<!-- MIT&#45;&gt;RES -->
<g id="edge8" class="edge">
<title>MIT&#45;&gt;RES</title>
<path fill="none" stroke="black" d="M740.79,-418.31C752.58,-418.31 764.98,-418.31 776.76,-418.31"/>
<polygon fill="black" stroke="black" points="776.91,-421.81 786.91,-418.31 776.91,-414.81 776.91,-421.81"/>
</g>
<!-- PIR -->
<g id="node9" class="node">
<title>PIR</title>
<polygon fill="#dbeafe" stroke="black" points="1056.66,-436.31 928.66,-436.31 928.66,-400.31 1056.66,-400.31 1056.66,-436.31"/>
<text text-anchor="middle" x="992.66" y="-415.51" font-family="Helvetica,sans-Serif" font-size="11.00">post&#45;incident review</text>
</g>
<!-- RES&#45;&gt;PIR -->
<g id="edge9" class="edge">
<title>RES&#45;&gt;PIR</title>
<path fill="none" stroke="black" d="M882.46,-418.31C893.75,-418.31 906.08,-418.31 918.26,-418.31"/>
<polygon fill="black" stroke="black" points="918.44,-421.81 928.44,-418.31 918.44,-414.81 918.44,-421.81"/>
</g>
<!-- ACT -->
<g id="node10" class="node">
<title>ACT</title>
<polygon fill="#dbeafe" stroke="black" points="1178.16,-436.31 1093.16,-436.31 1093.16,-400.31 1178.16,-400.31 1178.16,-436.31"/>
<text text-anchor="middle" x="1135.66" y="-415.51" font-family="Helvetica,sans-Serif" font-size="11.00">action items</text>
</g>
<!-- PIR&#45;&gt;ACT -->
<g id="edge10" class="edge">
<title>PIR&#45;&gt;ACT</title>
<path fill="none" stroke="black" d="M1056.73,-418.31C1065.49,-418.31 1074.4,-418.31 1082.92,-418.31"/>
<polygon fill="black" stroke="black" points="1083.08,-421.81 1093.08,-418.31 1083.08,-414.81 1083.08,-421.81"/>
</g>
<!-- SPR -->
<g id="node12" class="node">
<title>SPR</title>
<polygon fill="#dbeafe" stroke="black" points="891.66,-101.31 777.66,-101.31 777.66,-65.31 891.66,-65.31 891.66,-101.31"/>
<text text-anchor="middle" x="834.66" y="-80.51" font-family="Helvetica,sans-Serif" font-size="11.00">schedule in sprint</text>
</g>
<!-- TKT&#45;&gt;SPR -->
<g id="edge12" class="edge">
<title>TKT&#45;&gt;SPR</title>
<path fill="none" stroke="black" d="M725.84,-83.31C738.74,-83.31 753.25,-83.31 767.35,-83.31"/>
<polygon fill="black" stroke="black" points="767.51,-86.81 777.51,-83.31 767.51,-79.81 767.51,-86.81"/>
</g>
</g>
</svg>
