<?xml version="1.0" encoding="UTF-8" standalone="no"?>
<!DOCTYPE svg PUBLIC "-//W3C//DTD SVG 1.1//EN"
 "http://www.w3.org/Graphics/SVG/1.1/DTD/svg11.dtd">
<!-- Generated by graphviz version 2.43.0 (0)
 -->
<!-- Title: human_loop Pages: 1 -->
<svg width="1069pt" height="648pt"
 viewBox="0.00 0.00 1069.37 648.00" xmlns="http://www.w3.org/2000/svg" xmlns:xlink="http://www.w3.org/1999/xlink">
<g id="graph0" class="graph" transform="scale(0.8 0.8) rotate(0) translate(28.8 782.98)">
<title>human_loop</title>
<polygon fill="white" stroke="transparent" points="-28.8,28.8 -28.8,-782.98 1310.85,-782.98 1310.85,28.8 -28.8,28.8"/>
<!-- INT -->
<g id="node1" class="node">
<title>INT</title>
<polygon fill="#1e40af" stroke="black" points="132.05,-658.18 0.05,-658.18 0.05,-622.18 132.05,-622.18 132.05,-658.18"/>
<text text-anchor="middle" x="66.05" y="-637.38" font-family="Helvetica,sans-Serif" font-size="11.00" fill="white">Intent: IN_PROGRESS</text>
</g>
<!-- NEED -->
<g id="node2" class="node">
<title>NEED</title>
<polygon fill="#fef3c7" stroke="black" points="267.05,-658.18 169.45,-640.18 267.05,-622.18 364.65,-640.18 267.05,-658.18"/>
<text text-anchor="middle" x="267.05" y="-637.38" font-family="Helvetica,sans-Serif" font-size="11.00">approval needed?</text>
</g>
<!-- INT&#45;&gt;NEED -->
<g id="edge1" class="edge">
<title>INT&#45;&gt;NEED</title>
<path fill="none" stroke="black" d="M132.21,-640.18C140.95,-640.18 150.09,-640.18 159.32,-640.18"/>
<polygon fill="black" stroke="black" points="159.35,-643.68 169.35,-640.18 159.35,-636.68 159.35,-643.68"/>
</g>
<!-- EXEC -->
<g id="node3" class="node">
<title>EXEC</title>
<polygon fill="#dbeafe" stroke="black" points="1154.05,-658.18 1094.05,-658.18 1094.05,-622.18 1154.05,-622.18 1154.05,-658.18"/>
<text text-anchor="middle" x="1124.05" y="-637.38" font-family="Helvetica,sans-Serif" font-size="11.00">execute</text>
</g>
<!-- NEED&#45;&gt;EXEC -->
<g id="edge2" class="edge">
<title>NEED&#45;&gt;EXEC</title>
<path fill="none" stroke="black" d="M285.47,-654.94C320.94,-683.42 405.12,-743.18 487.05,-743.18 487.05,-743.18 487.05,-743.18 988.05,-743.18 1038.44,-743.18 1081.72,-697.26 1104.93,-666.74"/>
<polygon fill="black" stroke="black" points="1107.82,-668.72 1110.93,-658.6 1102.18,-664.57 1107.82,-668.72"/>
<text text-anchor="middle" x="720.05" y="-746.18" font-family="Helvetica,sans-Serif" font-size="10.00">no</text>
</g>
<!-- WAIT -->
<g id="node4" class="node">
<title>WAIT</title>
<polygon fill="#fef3c7" stroke="black" points="557.55,-532.18 418.55,-532.18 418.55,-496.18 557.55,-496.18 557.55,-532.18"/>
<text text-anchor="middle" x="488.05" y="-511.38" font-family="Helvetica,sans-Serif" font-size="11.00">WAITING_FOR_HUMAN</text>
</g>
<!-- NEED&#45;&gt;WAIT -->
<g id="edge3" class="edge">
<title>NEED&#45;&gt;WAIT</title>
<path fill="none" stroke="black" d="M291.9,-626.46C329.11,-605.05 401.39,-563.46 446.78,-537.35"/>
<polygon fill="black" stroke="black" points="448.55,-540.37 455.48,-532.35 445.06,-534.3 448.55,-540.37"/>
<text text-anchor="middle" x="392.05" y="-577.18" font-family="Helvetica,sans-Serif" font-size="10.00">yes</text>
</g>
<!-- DONE -->
<g id="node10" class="node">
<title>DONE</title>
<polygon fill="#dcfce7" stroke="black" points="1282.05,-658.18 1198.05,-658.18 1198.05,-622.18 1282.05,-622.18 1282.05,-658.18"/>
<text text-anchor="middle" x="1240.05" y="-637.38" font-family="Helvetica,sans-Serif" font-size="11.00">COMPLETED</text>
</g>
<!-- EXEC&#45;&gt;DONE -->
<g id="edge10" class="edge">
<title>EXEC&#45;&gt;DONE</title>
<path fill="none" stroke="black" d="M1154.11,-640.18C1164.42,-640.18 1176.34,-640.18 1187.94,-640.18"/>
<polygon fill="black" stroke="black" points="1188,-643.68 1198,-640.18 1188,-636.68 1188,-643.68"/>
</g>
<!-- INBOX -->
<g id="node5" class="node">
<title>INBOX</title>
<polygon fill="#dbeafe" stroke="black" points="695.55,-505.18 594.55,-505.18 594.55,-469.18 695.55,-469.18 695.55,-505.18"/>
<text text-anchor="middle" x="645.05" y="-484.38" font-family="Helvetica,sans-Serif" font-size="11.00">Approver Inbox</text>
</g>
<!-- WAIT&#45;&gt;INBOX -->
<g id="edge4" class="edge">
<title>WAIT&#45;&gt;INBOX</title>
<path fill="none" stroke="black" d="M557.94,-502.18C566.77,-500.64 575.75,-499.08 584.42,-497.57"/>
<polygon fill="black" stroke="black" points="585.18,-500.99 594.43,-495.83 583.97,-494.09 585.18,-500.99"/>
</g>
<!-- DEC -->
<g id="node6" class="node">
<title>DEC</title>
<polygon fill="#fef3c7" stroke="black" points="797.05,-450.18 744.1,-432.18 797.05,-414.18 850,-432.18 797.05,-450.18"/>
<text text-anchor="middle" x="797.05" y="-429.38" font-family="Helvetica,sans-Serif" font-size="11.00">decision</text>
</g>
<!-- INBOX&#45;&gt;DEC -->
<g id="edge5" class="edge">
<title>INBOX&#45;&gt;DEC</title>
<path fill="none" stroke="black" d="M695.16,-469.17C716.8,-461.24 741.71,-452.11 761.37,-444.9"/>
<polygon fill="black" stroke="black" points="762.65,-448.15 770.84,-441.43 760.24,-441.58 762.65,-448.15"/>
</g>
<!-- RES -->
<g id="node7" class="node">
<title>RES</title>
<polygon fill="#dbeafe" stroke="black" points="1034.05,-554.18 940.05,-554.18 940.05,-518.18 1034.05,-518.18 1034.05,-554.18"/>
<text text-anchor="middle" x="987.05" y="-533.38" font-family="Helvetica,sans-Serif" font-size="11.00">resume intent</text>
</g>
<!-- DEC&#45;&gt;RES -->
<g id="edge6" class="edge">
<title>DEC&#45;&gt;RES</title>
<path fill="none" stroke="black" d="M818.17,-443.31C848.07,-459.85 904.92,-491.3 944.12,-512.99"/>
<polygon fill="black" stroke="black" points="942.74,-516.22 953.19,-518 946.13,-510.1 942.74,-516.22"/>
<text text-anchor="middle" x="888.05" y="-494.18" font-family="Helvetica,sans-Serif" font-size="10.00">approve</text>
</g>
<!-- CAN -->
<g id="node8" class="node">
<title>CAN</title>
<polygon fill="#fee2e2" stroke="black" points="1161.55,-257.18 1086.55,-257.18 1086.55,-221.18 1161.55,-221.18 1161.55,-257.18"/>
<text text-anchor="middle" x="1124.05" y="-236.38" font-family="Helvetica,sans-Serif" font-size="11.00">CANCELED</text>
</g>
<!-- DEC&#45;&gt;CAN -->
<g id="edge7" class="edge">
<title>DEC&#45;&gt;CAN</title>
<path fill="none" stroke="black" d="M817.41,-420.69C869.46,-389.78 1013.22,-304.4 1083.43,-262.71"/>
<polygon fill="black" stroke="black" points="1085.62,-265.48 1092.43,-257.37 1082.04,-259.46 1085.62,-265.48"/>
<text text-anchor="middle" x="987.05" y="-360.18" font-family="Helvetica,sans-Serif" font-size="10.00">reject</text>
</g>
<!-- TOUT -->
<g id="node9" class="node">
<title>TOUT</title>
<polygon fill="#fef3c7" stroke="black" points="1048.55,-99.18 925.55,-99.18 925.55,-63.18 1048.55,-63.18 1048.55,-99.18"/>
<text text-anchor="middle" x="987.05" y="-84.38" font-family="Helvetica,sans-Serif" font-size="11.00">WAITING_FOR_TIME</text>
<text text-anchor="middle" x="987.05" y="-72.38" font-family="Helvetica,sans-Serif" font-size="11.00">→ timeout</text>
</g>
<!-- DEC&#45;&gt;TOUT -->
<g id="edge8" class="edge">
<title>DEC&#45;&gt;TOUT</title>
<path fill="none" stroke="black" d="M805.97,-416.99C818.88,-392.26 845.32,-341.77 868.05,-299.18 904.9,-230.15 948.93,-149.2 971.35,-108.09"/>
<polygon fill="black" stroke="black" points="974.47,-109.69 976.19,-99.23 968.32,-106.33 974.47,-109.69"/>
<text text-anchor="middle" x="888.05" y="-302.18" font-family="Helvetica,sans-Serif" font-size="10.00">timeout</text>
</g>
<!-- RES&#45;&gt;EXEC -->
<g id="edge9" class="edge">
<title>RES&#45;&gt;EXEC</title>
<path fill="none" stroke="black" d="M1011.56,-554.3C1033.59,-571.27 1066.69,-596.77 1091.11,-615.58"/>
<polygon fill="black" stroke="black" points="1089.29,-618.59 1099.35,-621.92 1093.56,-613.05 1089.29,-618.59"/>
</g>
<!-- TOUT&#45;&gt;CAN -->
<g id="edge11" class="edge">
<title>TOUT&#45;&gt;CAN</title>
<path fill="none" stroke="black" d="M1003.53,-99.31C1027.41,-127.25 1073.33,-180.99 1100.77,-213.11"/>
<polygon fill="black" stroke="black" points="1098.17,-215.45 1107.33,-220.78 1103.49,-210.9 1098.17,-215.45"/>
</g>
</g>
</svg>
